<svg xmlns="http://www.w3.org/2000/svg" xmlns:xlink="http://www.w3.org/1999/xlink" version="1.1" x="0px" y="0px" viewBox="0 0 100 125" enable-background="new 0 0 100 100" xml:space="preserve"><path d="M95,95H5V5h90V95z M90,10H9v81h81V10z"/><path d="M60.852,9.5L90.5,60.852L39.148,90.5L9.5,39.147L60.852,9.5z M13.55,40.233L40.233,86.45L86.45,59.767L59.767,13.55  L13.55,40.233z"/><path d="M23,57.236l19.766-34.235L77,42.766L57.234,77.001L23,57.236z M56.511,74.302L74.3,43.489L43.489,25.701L25.7,56.513  L56.511,74.302z"/><path d="M63,63H37V37h26V63z M62,38H38v24h24V38z"/><path d="M53.111,38.325l8.564,14.834l-14.834,8.564L38.276,46.89L53.111,38.325z M39.446,47.203l7.708,13.351l13.351-7.709  l-7.708-13.351L39.446,47.203z"/><path d="M42.148,52.184l5.669-9.818l9.818,5.668l-5.669,9.819L42.148,52.184z M51.759,57.078l5.102-8.837l-8.836-5.101l-5.102,8.836  L51.759,57.078z"/><text x="0" y="115" fill="#000000" font-size="5px" font-weight="bold" font-family="'Helvetica Neue', Helvetica, Arial-Unicode, Arial, Sans-serif">Created by Santiago Arias</text><text x="0" y="120" fill="#000000" font-size="5px" font-weight="bold" font-family="'Helvetica Neue', Helvetica, Arial-Unicode, Arial, Sans-serif">from the Noun Project</text></svg>